<?xml version="1.0" standalone="no"?>
<!DOCTYPE svg PUBLIC "-//W3C//DTD SVG 20010904//EN"
 "http://www.w3.org/TR/2001/REC-SVG-20010904/DTD/svg10.dtd">
<svg version="1.0" xmlns="http://www.w3.org/2000/svg"
 width="253.000000pt" height="214.000000pt" viewBox="0 0 253.000000 214.000000"
 preserveAspectRatio="xMidYMid meet">

<g transform="translate(0.000000,214.000000) scale(0.100000,-0.100000)"
fill="#ffff" stroke="none">
<path d="M376 1846 c-25 -29 -46 -62 -46 -73 0 -10 12 -31 28 -45 72 -68 1846
-1428 1862 -1428 24 0 100 100 100 133 0 19 -12 34 -50 62 l-50 37 0 650 c0
426 -4 656 -10 669 -18 33 -64 49 -139 49 -64 0 -74 -3 -103 -29 l-33 -29 -5
-541 -5 -540 -102 80 -103 80 0 255 c0 156 -4 263 -10 275 -18 33 -64 49 -139
49 -64 0 -74 -3 -103 -29 l-33 -29 -5 -147 -5 -147 -487 376 c-268 207 -494
376 -502 376 -8 0 -35 -24 -60 -54z"/>
<path d="M930 695 l0 -327 34 -34 c32 -32 38 -34 105 -34 77 0 123 16 141 49
6 12 10 106 10 235 l0 214 -132 103 c-73 56 -139 107 -145 112 -10 7 -13 -58
-13 -318z"/>
<path d="M464 666 l-34 -34 0 -132 0 -132 34 -34 c32 -32 38 -34 105 -34 77 0
123 16 141 49 13 25 13 277 0 302 -18 33 -64 49 -141 49 -67 0 -73 -2 -105
-34z"/>
<path d="M1430 500 l0 -132 34 -34 c32 -32 38 -34 105 -34 103 0 151 30 151
92 0 18 -31 47 -136 128 -76 58 -141 107 -145 108 -5 2 -9 -56 -9 -128z"/>
</g>
</svg>
