<?xml version="1.0" standalone="no"?>
<!DOCTYPE svg PUBLIC "-//W3C//DTD SVG 20010904//EN"
 "http://www.w3.org/TR/2001/REC-SVG-20010904/DTD/svg10.dtd">
<svg version="1.0" xmlns="http://www.w3.org/2000/svg"
 width="236.000000pt" height="230.000000pt" viewBox="0 0 236.000000 230.000000"
 preserveAspectRatio="xMidYMid meet">

<g transform="translate(0.000000,230.000000) scale(0.100000,-0.100000)"
fill="black" stroke="none">
<path d="M521 1886 c-198 -57 -205 -62 -209 -186 -14 -354 181 -774 475 -1026
242 -206 509 -315 829 -339 107 -9 154 3 183 44 11 15 38 94 61 174 67 243 64
248 -147 337 -200 85 -223 92 -260 85 -31 -6 -49 -22 -171 -165 l-30 -34 -82
49 c-161 97 -280 216 -374 374 -26 45 -46 83 -45 85 82 63 173 145 184 167 8
15 15 41 15 56 -1 47 -143 374 -172 396 -44 33 -92 30 -257 -17z"/>
<path d="M1559 1911 c-22 -18 -24 -28 -29 -138 l-5 -118 -115 -3 c-132 -3
-150 -12 -150 -72 0 -60 18 -69 150 -72 l115 -3 2 -100 c2 -55 5 -110 8 -122
8 -34 48 -56 86 -48 45 10 59 52 59 175 l0 100 115 0 c102 0 117 2 135 20 11
11 20 33 20 50 0 17 -9 39 -20 50 -18 18 -33 20 -135 20 l-115 0 0 99 c0 114
-12 159 -47 172 -35 13 -48 11 -74 -10z"/>
</g>
</svg>
