<?xml version="1.0" standalone="no"?>
<!DOCTYPE svg PUBLIC "-//W3C//DTD SVG 20010904//EN"
 "http://www.w3.org/TR/2001/REC-SVG-20010904/DTD/svg10.dtd">
<svg version="1.0" xmlns="http://www.w3.org/2000/svg"
 width="262.000000pt" height="298.000000pt" viewBox="0 0 250.000000 250.000000"
 preserveAspectRatio="xMidYMid meet">

<g transform="translate(0.000000,298.000000) scale(0.100000,-0.100000)"
fill="#ffff" stroke="none">
<path d="M1270 2797 c-135 -46 -246 -137 -307 -253 -112 -211 -76 -460 92
-630 213 -217 542 -219 756 -5 290 291 164 779 -230 895 -83 24 -230 21 -311
-7z"/>
<path d="M335 1953 c-91 -60 -144 -114 -175 -177 -80 -162 -14 -372 234 -751
179 -272 300 -405 426 -468 57 -28 74 -32 145 -32 69 0 89 5 146 32 36 18 86
50 110 72 41 36 44 42 44 87 0 45 -8 61 -91 189 -51 77 -104 149 -118 160 -40
29 -86 24 -154 -18 -67 -41 -94 -45 -135 -19 -37 23 -237 337 -237 371 0 37
23 66 85 106 65 41 79 64 73 124 -4 37 -22 72 -92 178 -48 73 -99 142 -113
153 -37 29 -99 26 -148 -7z"/>
<path d="M1164 1610 c-161 -22 -313 -99 -421 -212 l-33 -34 51 -79 c28 -44 53
-82 55 -84 2 -2 26 6 53 18 103 44 234 19 308 -60 28 -31 183 -261 211 -316
42 -80 34 -196 -19 -277 -54 -81 -223 -178 -345 -198 -130 -22 -284 26 -406
125 -32 26 -60 47 -63 47 -3 0 -5 -37 -5 -83 l0 -83 37 -21 c57 -32 197 -79
304 -102 318 -69 749 -69 1064 -1 101 22 258 72 323 103 l44 20 -4 336 c-4
328 -5 338 -30 413 -40 120 -92 204 -182 293 -93 92 -182 144 -303 177 -67 18
-112 21 -328 24 -137 1 -278 -1 -311 -6z"/>
</g>
</svg>
